<svg width="24" height="24" viewBox="0 0 24 24" fill="none" xmlns="http://www.w3.org/2000/svg">
<path d="M9.1419 21.5856C7.46637 21.0868 5.97491 20.1606 4.79393 18.9335C5.23449 18.4113 5.5 17.7367 5.5 17C5.5 15.3431 4.15685 14 2.5 14C2.39977 14 2.3007 14.0049 2.20299 14.0145C2.0699 13.3638 2 12.6901 2 12C2 10.9547 2.16039 9.94684 2.45789 8.99971C2.47191 8.99991 2.48594 9 2.5 9C4.15685 9 5.5 7.65686 5.5 6C5.5 5.52436 5.38931 5.07457 5.19228 4.67499C6.34877 3.59969 7.76026 2.79495 9.32603 2.36151C9.8222 3.33403 10.8333 4 12 4C13.1667 4 14.1778 3.33403 14.674 2.36151C16.2397 2.79495 17.6512 3.59969 18.8077 4.67499C18.6107 5.07457 18.5 5.52436 18.5 6C18.5 7.65686 19.8431 9 21.5 9C21.5141 9 21.5281 8.99991 21.5421 8.99971C21.8396 9.94684 22 10.9547 22 12C22 12.6901 21.9301 13.3638 21.797 14.0145C21.6993 14.0049 21.6002 14 21.5 14C19.8431 14 18.5 15.3431 18.5 17C18.5 17.7367 18.7655 18.4113 19.2061 18.9335C18.0251 20.1606 16.5336 21.0868 14.8581 21.5856C14.4714 20.3759 13.338 19.5 12 19.5C10.662 19.5 9.5286 20.3759 9.1419 21.5856Z" stroke="white" stroke-width="2" stroke-linejoin="round"/>
<path d="M12 15.5C13.933 15.5 15.5 13.933 15.5 12C15.5 10.067 13.933 8.5 12 8.5C10.067 8.5 8.5 10.067 8.5 12C8.5 13.933 10.067 15.5 12 15.5Z" stroke="white" stroke-width="2" stroke-linejoin="round"/>
</svg>
