<svg width="19" height="19" viewBox="0 0 19 19" fill="none" xmlns="http://www.w3.org/2000/svg">
<path d="M4.69082 12.117C4.77802 12.0336 4.89624 11.9868 5.01949 11.9868H16.3921C16.5992 11.9868 16.7029 12.2265 16.5564 12.3667L14.3092 14.5156C14.222 14.599 14.1038 14.6459 13.9805 14.6459H2.60795C2.4008 14.6459 2.29708 14.4061 2.44361 14.266L4.69082 12.117Z" fill="url(#paint0_linear_14_264)"/>
<path d="M4.69082 4.0886C4.77801 4.00521 4.89623 3.95837 5.01949 3.95837H16.3921C16.5992 3.95837 16.7029 4.19814 16.5564 4.3383L14.3092 6.48726C14.222 6.57063 14.1038 6.61746 13.9805 6.61746H2.60795C2.4008 6.61746 2.29708 6.3777 2.44361 6.23757L4.69082 4.0886Z" fill="url(#paint1_linear_14_264)"/>
<path d="M14.3092 8.07722C14.222 7.99385 14.1038 7.94702 13.9805 7.94702H2.60795C2.4008 7.94702 2.29708 8.18678 2.44361 8.32692L4.69082 10.4759C4.77801 10.5593 4.89623 10.6061 5.01949 10.6061H16.3921C16.5992 10.6061 16.7029 10.3663 16.5564 10.2262L14.3092 8.07722Z" fill="url(#paint2_linear_14_264)"/>
<defs>
<linearGradient id="paint0_linear_14_264" x1="12.0088" y1="1.02675" x2="4.66747" y2="15.7195" gradientUnits="userSpaceOnUse">
<stop stop-color="#00FFA3"/>
<stop offset="1" stop-color="#DC1FFF"/>
</linearGradient>
<linearGradient id="paint1_linear_14_264" x1="12.0088" y1="1.02675" x2="4.66747" y2="15.7195" gradientUnits="userSpaceOnUse">
<stop stop-color="#00FFA3"/>
<stop offset="1" stop-color="#DC1FFF"/>
</linearGradient>
<linearGradient id="paint2_linear_14_264" x1="12.0088" y1="1.02675" x2="4.66747" y2="15.7195" gradientUnits="userSpaceOnUse">
<stop stop-color="#00FFA3"/>
<stop offset="1" stop-color="#DC1FFF"/>
</linearGradient>
</defs>
</svg>
